<svg width="24" height="25" viewBox="0 0 24 25" fill="none" xmlns="http://www.w3.org/2000/svg">
<path fill-rule="evenodd" clip-rule="evenodd" d="M2.99033 5.18797C3.30665 4.66421 5.0495 2.75919 6.29322 2.8167C6.665 2.84751 6.99364 3.07242 7.26067 3.33327C7.87379 3.93199 9.62897 6.19644 9.72859 6.67296C9.97096 7.84164 8.57833 8.51533 9.00454 9.69326C10.0911 12.3521 11.9634 14.2242 14.6233 15.3097C15.8003 15.7359 16.474 14.3434 17.6428 14.5867C18.1183 14.6864 20.3839 16.4414 20.9826 17.0545C21.2425 17.3205 21.4684 17.6502 21.4992 18.0219C21.5454 19.3313 19.5222 21.0987 19.1278 21.3247C18.1974 21.9901 16.9834 21.9788 15.5035 21.2908C11.3739 19.5727 4.77426 13.0976 3.02422 8.81212C2.35461 7.34048 2.30839 6.11839 2.99033 5.18797Z" stroke="white" stroke-width="1.5" stroke-linecap="round" stroke-linejoin="round"/>
</svg>
