<svg class="social-img" xmlns="http://www.w3.org/2000/svg" width="24" height="24" viewBox="0 0 24 24" fill="none">
<path class="path1" d="M12.0264 24.3154H11.9736C5.37142 24.3154 0 18.944 0 12.3418V12.289C0 5.68687 5.37142 0.31543 11.9736 0.31543H12.0264C18.6286 0.31543 24 5.68687 24 12.289V12.3418C24 18.944 18.6286 24.3154 12.0264 24.3154ZM11.9736 1.12781C5.81904 1.12781 0.812375 6.13449 0.812375 12.289V12.3418C0.812375 18.4964 5.81904 23.5031 11.9736 23.5031H12.0264C18.181 23.5031 23.1876 18.4964 23.1876 12.3418V12.289C23.1876 6.13449 18.181 1.12781 12.0264 1.12781H11.9736Z" fill="white"/>
<path d="M13.6135 9.6236V12.1493H16.7379L16.2432 15.5515H13.6135V23.3901C13.0863 23.4632 12.5469 23.5014 11.9993 23.5014C11.3673 23.5014 10.7466 23.451 10.1422 23.3536V15.5515H7.26074V12.1493H10.1422V9.05901C10.1422 7.1418 11.6963 5.58691 13.6143 5.58691V5.58854C13.62 5.58854 13.6249 5.58691 13.6306 5.58691H16.7387V8.52934H14.7078C14.1042 8.52934 13.6143 9.01919 13.6143 9.62279L13.6135 9.6236Z" fill="white"/></svg>
                        