<svg class="social-img" xmlns="http://www.w3.org/2000/svg" width="24" height="24" viewBox="0 0 24 24" fill="none">
<path class="path1" d="M12.0264 24.3154H11.9736C5.37143 24.3154 0 18.944 0 12.3418V12.289C0 5.68685 5.37143 0.31543 11.9736 0.31543H12.0264C18.6286 0.31543 24 5.68685 24 12.289V12.3418C24 18.944 18.6286 24.3154 12.0264 24.3154ZM11.9736 1.12781C5.81904 1.12781 0.812375 6.13447 0.812375 12.289V12.3418C0.812375 18.4964 5.81904 23.5031 11.9736 23.5031H12.0264C18.181 23.5031 23.1876 18.4964 23.1876 12.3418V12.289C23.1876 6.13447 18.181 1.12781 12.0264 1.12781H11.9736Z" fill="white"/>
<path d="M15.588 5.43848H8.41312C6.43092 5.43848 4.81836 7.05104 4.81836 9.03324V15.5972C4.81836 17.5794 6.43092 19.192 8.41312 19.192H15.588C17.5702 19.192 19.1828 17.5794 19.1828 15.5972V9.03324C19.1828 7.05104 17.5702 5.43848 15.588 5.43848ZM6.08648 9.03324C6.08648 7.7505 7.13038 6.70658 8.41312 6.70658H15.588C16.8708 6.70658 17.9147 7.7505 17.9147 9.03324V15.5972C17.9147 16.88 16.8708 17.9239 15.588 17.9239H8.41312C7.13038 17.9239 6.08648 16.88 6.08648 15.5972V9.03324Z" fill="white"/>
<path d="M12.001 15.6572C13.8442 15.6572 15.3447 14.1575 15.3447 12.3135C15.3447 10.4694 13.8451 8.96973 12.001 8.96973C10.1569 8.96973 8.65723 10.4694 8.65723 12.3135C8.65723 14.1575 10.1569 15.6572 12.001 15.6572ZM12.001 10.2386C13.1456 10.2386 14.0766 11.1696 14.0766 12.3143C14.0766 13.4589 13.1456 14.3899 12.001 14.3899C10.8563 14.3899 9.92535 13.4589 9.92535 12.3143C9.92535 11.1696 10.8563 10.2386 12.001 10.2386Z" fill="white"/>
<path d="M15.6529 9.51083C16.1492 9.51083 16.5538 9.10709 16.5538 8.60992C16.5538 8.11274 16.15 7.70898 15.6529 7.70898C15.1557 7.70898 14.752 8.11274 14.752 8.60992C14.752 9.10709 15.1557 9.51083 15.6529 9.51083Z" fill="white"/></svg>