<svg class="social-img" xmlns="http://www.w3.org/2000/svg" width="24" height="24" viewBox="0 0 24 24" fill="none">
<path class="path1" d="M12.0264 24.3154H11.9736C5.37143 24.3154 0 18.944 0 12.3418V12.289C0 5.68685 5.37143 0.31543 11.9736 0.31543H12.0264C18.6286 0.31543 24 5.68685 24 12.289V12.3418C24 18.944 18.6286 24.3154 12.0264 24.3154ZM11.9736 1.12781C5.81905 1.12781 0.812375 6.13447 0.812375 12.289V12.3418C0.812375 18.4964 5.81905 23.5031 11.9736 23.5031H12.0264C18.181 23.5031 23.1876 18.4964 23.1876 12.3418V12.289C23.1876 6.13447 18.181 1.12781 12.0264 1.12781H11.9736Z" fill="white"/>
<path d="M5.11144 5.9707L10.4585 13.1196L5.07812 18.9322H6.28938L11.0003 13.8434L14.8063 18.9322H18.9275L13.2799 11.3811L18.2882 5.9707H17.0769L12.7388 10.6573L9.23343 5.9707H5.11224H5.11144ZM6.89216 6.86271H8.78499L17.1452 18.0402H15.2523L6.89216 6.86271Z" fill="white"/></svg>